<svg width="14" height="14" fill="none" xmlns="http://www.w3.org/2000/svg"><path fill-rule="evenodd" clip-rule="evenodd" d="M7 1.167a4.667 4.667 0 0 0-4.667 4.666c0 1.808 1.176 3.561 2.465 4.922A17.177 17.177 0 0 0 7 12.701a17.176 17.176 0 0 0 2.202-1.946c1.289-1.36 2.465-3.114 2.465-4.922A4.667 4.667 0 0 0 7 1.167Zm0 12.25-.324.485-.002-.001-.003-.003-.014-.009-.048-.033a16.662 16.662 0 0 1-.793-.594 18.329 18.329 0 0 1-1.864-1.705c-1.336-1.41-2.785-3.448-2.785-5.724a5.833 5.833 0 0 1 11.666 0c0 2.276-1.449 4.315-2.784 5.724a18.33 18.33 0 0 1-2.658 2.299l-.048.033-.014.01-.003.002h-.002L7 13.418Zm0 0 .324.485a.584.584 0 0 1-.648 0L7 13.417Z" fill="#fff"/><path fill-rule="evenodd" clip-rule="evenodd" d="M7 4.667A1.167 1.167 0 1 0 7 7a1.167 1.167 0 0 0 0-2.333ZM4.667 5.833a2.333 2.333 0 1 1 4.666 0 2.333 2.333 0 0 1-4.666 0Z" fill="#fff"/></svg>