<svg width="14" height="14" viewBox="0 0 14 14" fill="none" xmlns="http://www.w3.org/2000/svg">
<path fill-rule="evenodd" clip-rule="evenodd" d="M6.64186 0.706252C6.85251 0.542415 7.14747 0.542415 7.35812 0.706252L12.6081 4.78958C12.7502 4.9001 12.8333 5.07003 12.8333 5.25004V11.6667C12.8333 12.1308 12.6489 12.576 12.3208 12.9041C11.9926 13.2323 11.5475 13.4167 11.0833 13.4167H2.91666C2.45253 13.4167 2.00741 13.2323 1.67922 12.9041C1.35103 12.576 1.16666 12.1308 1.16666 11.6667V5.25004C1.16666 5.07003 1.24977 4.9001 1.39186 4.78958L6.64186 0.706252ZM2.33332 5.53534V11.6667C2.33332 11.8214 2.39478 11.9698 2.50418 12.0792C2.61357 12.1886 2.76195 12.25 2.91666 12.25H11.0833C11.238 12.25 11.3864 12.1886 11.4958 12.0792C11.6052 11.9698 11.6667 11.8214 11.6667 11.6667V5.53534L6.99999 1.90571L2.33332 5.53534Z" fill="white"/>
<path fill-rule="evenodd" clip-rule="evenodd" d="M4.66666 7.00004C4.66666 6.67787 4.92782 6.41671 5.24999 6.41671H8.74999C9.07216 6.41671 9.33332 6.67787 9.33332 7.00004V12.8334C9.33332 13.1555 9.07216 13.4167 8.74999 13.4167C8.42782 13.4167 8.16666 13.1555 8.16666 12.8334V7.58337H5.83332V12.8334C5.83332 13.1555 5.57216 13.4167 5.24999 13.4167C4.92782 13.4167 4.66666 13.1555 4.66666 12.8334V7.00004Z" fill="white"/>
</svg>
