<svg width="8" height="8" viewBox="0 0 8 8" fill="none" xmlns="http://www.w3.org/2000/svg">
<path fill-rule="evenodd" clip-rule="evenodd" d="M3.99993 0.333313C4.1268 0.333313 4.24267 0.405337 4.29883 0.519105L5.25135 2.4488L7.38147 2.76015C7.50699 2.7785 7.61122 2.8665 7.65034 2.98717C7.68947 3.10784 7.65671 3.24026 7.56584 3.32877L6.02477 4.82977L6.38846 6.9503C6.40991 7.07536 6.3585 7.20176 6.25584 7.27633C6.15318 7.35091 6.01708 7.36073 5.90478 7.30167L3.99993 6.29993L2.09508 7.30167C1.98277 7.36073 1.84668 7.35091 1.74402 7.27633C1.64136 7.20176 1.58994 7.07536 1.61139 6.9503L1.97509 4.82977L0.434017 3.32877C0.343145 3.24026 0.310387 3.10784 0.349513 2.98717C0.388639 2.8665 0.492866 2.7785 0.618386 2.76015L2.74851 2.4488L3.70103 0.519105C3.75718 0.405337 3.87306 0.333313 3.99993 0.333313ZM3.99993 1.41973L3.26883 2.90085C3.22032 2.99914 3.12659 3.06729 3.01814 3.08314L1.38273 3.32218L2.56584 4.47453C2.64446 4.55111 2.68035 4.66148 2.6618 4.76966L2.38265 6.3972L3.84478 5.62829C3.94191 5.57721 4.05795 5.57721 4.15508 5.62829L5.6172 6.3972L5.33806 4.76966C5.31951 4.66148 5.35539 4.55111 5.43402 4.47453L6.61712 3.32218L4.98172 3.08314C4.87327 3.06729 4.77954 2.99914 4.73103 2.90085L3.99993 1.41973Z" fill="#F2994A"/>
<path d="M2.33333 5L1 3L3 2.66667L4 1L5 2.66667L7 3.33333L5.66667 4.66667L6 7L4 6L2 7L2.33333 5Z" fill="#F2994A"/>
</svg>
