<svg width="14" height="14" viewBox="0 0 14 14" fill="none" xmlns="http://www.w3.org/2000/svg">
<path fill-rule="evenodd" clip-rule="evenodd" d="M2.60427 9.0209C3.15125 8.47392 3.89312 8.16663 4.66667 8.16663H9.33333C10.1069 8.16663 10.8487 8.47392 11.3957 9.0209C11.9427 9.56788 12.25 10.3097 12.25 11.0833V12.25C12.25 12.5721 11.9888 12.8333 11.6667 12.8333C11.3445 12.8333 11.0833 12.5721 11.0833 12.25V11.0833C11.0833 10.6192 10.899 10.174 10.5708 9.84586C10.2426 9.51767 9.79746 9.33329 9.33333 9.33329H4.66667C4.20254 9.33329 3.75742 9.51767 3.42923 9.84586C3.10104 10.174 2.91667 10.6192 2.91667 11.0833V12.25C2.91667 12.5721 2.6555 12.8333 2.33333 12.8333C2.01117 12.8333 1.75 12.5721 1.75 12.25V11.0833C1.75 10.3097 2.05729 9.56788 2.60427 9.0209Z" fill="white"/>
<path fill-rule="evenodd" clip-rule="evenodd" d="M7.00001 2.33329C6.03351 2.33329 5.25001 3.11679 5.25001 4.08329C5.25001 5.04979 6.03351 5.83329 7.00001 5.83329C7.96651 5.83329 8.75001 5.04979 8.75001 4.08329C8.75001 3.11679 7.96651 2.33329 7.00001 2.33329ZM4.08334 4.08329C4.08334 2.47246 5.38918 1.16663 7.00001 1.16663C8.61084 1.16663 9.91668 2.47246 9.91668 4.08329C9.91668 5.69412 8.61084 6.99996 7.00001 6.99996C5.38918 6.99996 4.08334 5.69412 4.08334 4.08329Z" fill="white"/>
</svg>
